<?xml version="1.0" encoding="UTF-8"?>
<!DOCTYPE svg PUBLIC "-//W3C//DTD SVG 1.1//EN" "http://www.w3.org/Graphics/SVG/1.1/DTD/svg11.dtd">
<!-- Creator: CorelDRAW (Evaluation Version) -->
<svg xmlns="http://www.w3.org/2000/svg" xml:space="preserve" width="210mm" height="297mm" version="1.1" style="shape-rendering:geometricPrecision; text-rendering:geometricPrecision; image-rendering:optimizeQuality; fill-rule:evenodd; clip-rule:evenodd"
viewBox="0 0 21000 29700"
 xmlns:xlink="http://www.w3.org/1999/xlink"
 xmlns:xodm="http://www.corel.com/coreldraw/odm/2003">
 <defs>
  <style type="text/css">
   <![CDATA[
    .str0 {stroke:black;stroke-width:26.46;stroke-miterlimit:22.9256}
    .str2 {stroke:black;stroke-width:26.46;stroke-miterlimit:22.9256}
    .str1 {stroke:black;stroke-width:105.83;stroke-miterlimit:22.9256}
    .str3 {stroke:white;stroke-width:105.83;stroke-miterlimit:22.9256}
    .fil0 {fill:none}
    .fil1 {fill:black}
   ]]>
  </style>
 </defs>
 <g id="Layer_x0020_1">
  <metadata id="CorelCorpID_0Corel-Layer"/>
  <ellipse class="fil0 str0" cx="10072.48" cy="14196.07" rx="3494.53" ry="3578.62"/>
  <path class="fil0 str1" d="M11242.15 13136.02c366.52,-665.92 -269.33,-1524.45 -959.37,-675.56 -111.05,-102.95 -331.73,-199.08 -516.51,5.94"/>
  <path class="fil0 str1" d="M11242.43 13100.6c360.91,560.14 187.17,894.64 -415.97,1116.77 -700.92,258.13 -2567.71,64.18 -2200.02,-839.52 31.67,-77.84 146.41,-291.53 146.52,-292.79 10.53,-111.01 -164.7,-363.04 17.94,-709.79 205.91,-390.94 737.93,-437.89 946.58,-3.65l49.43 87.21"/>
  <ellipse class="fil0 str1" cx="10777.88" cy="12685.33" rx="356.07" ry="386.45"/>
  <ellipse class="fil0 str1" cx="9270" cy="12676.28" rx="356.07" ry="386.45"/>
  <path class="fil1 str2" d="M8980.42 12857.96c28.87,-97.97 29.19,-283.52 127.9,-339.93 24.87,257.18 313.42,137.99 154.93,-97.02 95.59,0.09 176.79,19.93 262.09,52.13 217.58,153.17 -89.39,980.1 -544.92,384.82z"/>
  <path class="fil0 str1" d="M9427.92 13467.72c241.25,265.68 779.24,448.02 1165.51,-1.42"/>
  <path class="fil0 str1" d="M9886.01 13199.38c123.74,-195.41 227.45,-98.22 256.83,-11.5"/>
  <path class="fil0 str1" d="M8990.92 13448.55c71.35,-56.44 240.84,-123.38 268.34,59.42"/>
  <path class="fil0 str1" d="M10794.51 13546.3c89.22,-136.01 207.32,-136.84 280.19,-53.21"/>
  <path class="fil1 str2" d="M8153.42 13141.27c-289.83,70.01 75.56,723.94 -246.14,272.2 -151.25,-212.39 -274.63,-187.48 -144.05,83.69 314.16,652.42 137.75,430.51 -80.16,729.26 -89.45,122.63 28.68,388.68 280.38,149.76 259.15,-245.98 260.7,-98.98 372.21,-171.31 121.38,-78.74 -127.71,-421.73 -116.46,-584 12.06,-173.98 152.8,-454.72 -65.78,-479.6z"/>
  <path class="fil1 str2" d="M11236.35 15772.53c-34.18,-168.12 -39.32,-306.94 158.35,-296.7 129.67,-0.02 231.59,12.42 351.7,-15 155.45,-35.49 332.58,-264.32 451.7,-173.33 259.31,198.09 -154.34,258.98 -283.35,321.68 119.46,73.34 383.77,82.66 358.37,220.02 -28.34,153.3 -432.73,-33.87 -658.36,44.39 -185.33,64.28 -92.12,512 -358.41,442.32 -247.62,-77.24 16.1,-365.77 -20,-543.38z"/>
  <path class="fil1 str2" d="M11970.84 13257.66c295.95,70.01 -77.15,723.94 251.34,272.2 154.44,-212.39 280.43,-187.48 147.09,83.69 -320.79,652.42 -140.66,430.51 81.85,729.26 91.34,122.63 -29.28,388.68 -286.3,149.76 -264.62,-245.98 -266.2,-98.98 -380.06,-171.31 -123.95,-78.74 130.4,-421.73 118.91,-584 -12.31,-173.98 -156.02,-454.72 67.17,-479.6z"/>
  <path class="fil1 str2" d="M8883.46 15736.92c34.64,-170.45 39.85,-311.19 -160.5,-300.81 -131.42,-0.02 -234.72,12.59 -356.46,-15.21 -157.56,-35.98 -337.09,-267.98 -457.82,-175.73 -262.82,200.84 156.43,262.57 287.19,326.14 -121.08,74.36 -388.97,83.8 -363.23,223.07 28.73,155.42 438.6,-34.34 667.28,45 187.84,65.17 93.37,519.09 363.27,448.45 250.97,-78.31 -16.32,-370.84 20.27,-550.91z"/>
  <path class="fil0 str1" d="M8294.71 14200.69c185.27,164.81 347.66,388.09 857.11,284.65 -757.49,2307.08 2583.07,1759.14 1753.55,23.92 372.41,82.07 665.54,-7.96 879.39,-200.46"/>
  <path class="fil0 str1" d="M9053.38 15235.3c-200.86,-160.19 -323.6,-541.69 -602.59,-480.56 -349.77,76.64 64.01,528.61 214.07,739.3"/>
  <path class="fil0 str1" d="M11032.69 15231.49c203.69,-129.06 452.48,-539.39 611.08,-387.17 166.68,159.99 -170.29,446.12 -255.42,669.18"/>
  <path class="fil1 str2" d="M10041.61 14379.7c-590.16,15.85 -821.86,637.74 -816.02,1264.79 466.44,650.22 1462.92,241.83 1601.19,-47.48 -6.24,-513.94 -195.01,-1233.16 -785.17,-1217.31z"/>
  <path class="fil1 str2" d="M11084.53 12860.72c-29.89,-97.97 -30.22,-283.52 -132.43,-339.93 -25.75,257.18 -324.52,137.99 -160.42,-97.02 -98.97,0.09 -183.05,19.93 -271.37,52.13 -225.28,153.17 92.56,980.1 564.22,384.82z"/>
  <path class="fil0 str3" d="M9564.2 14776.83c-83.97,-3.82 -108.31,39.98 -56.95,142.74 132.19,262.04 264.39,524.08 396.58,786.11 111.61,227.9 136.63,157.12 217.6,4.02l394.54 -741.88c47.34,-87.62 77.66,-196.26 -99.35,-195.5l-852.42 4.51z"/>
  <line class="fil0 str3" x1="10017.8" y1="14813.02" x2="10015.17" y2= "15810.94" />
 </g>
</svg>
